<svg width="34" height="34" viewBox="0 0 34 34" fill="none" xmlns="http://www.w3.org/2000/svg">
<path d="M10.375 4H23.1307C26.6482 4 29.5 6.85175 29.5 10.3693V23.1321C29.5 26.6482 26.6482 29.5 23.1307 29.5H10.3693C6.85175 29.5 4 26.6482 4 23.1307V10.375C4 6.85458 6.85458 4 10.375 4V4Z" stroke="#9C9C9C" stroke-width="1.5" stroke-linecap="round" stroke-linejoin="round"/>
<path d="M8.854 21.7458C8.88092 21.7416 11.404 20.8958 11.404 20.8958C8.565 18.0256 8.34967 13.7742 10.554 10.6958C11.5995 12.6409 13.5517 14.4344 15.654 14.9458C15.7348 12.4907 17.4008 10.6958 19.904 10.6958C21.6083 10.6958 22.6113 11.3461 23.304 12.3958H25.854L24.154 14.9458" stroke="#9C9C9C" stroke-width="1.5" stroke-linecap="round" stroke-linejoin="round"/>
</svg>
